<svg xmlns="http://www.w3.org/2000/svg" height="48" width="48" viewBox="0 0 48 48">
    <g fill="#002747" class="nc-icon-wrapper">
        <path data-color="color-2" d="M3,42.03636C3,38.96363,8,34,8,34s5,4.96364,5,8.03636C13,45.22727,10.5,47,8,47 S3,45.22727,3,42.03636z"></path> 
        <path fill="#002747" d="M44,11h-8.76025C33.93542,9.37396,32.05066,8.328,30,8.06799V3h7c0.55225,0,1-0.44775,1-1s-0.44775-1-1-1H21 c-0.55225,0-1,0.44775-1,1s0.44775,1,1,1h7v5.06799C25.94934,8.328,24.06458,9.37396,22.76025,11H18C9.729,11,3,17.729,3,26v2 c0,0.55225,0.44775,1,1,1h8c0.55225,0,1-0.44775,1-1v-2c0-2.75684,2.24316-5,5-5h4.76025c1.51416,1.8877,3.80908,3,6.23975,3 s4.72559-1.1123,6.23975-3H44c0.55225,0,1-0.44775,1-1v-8C45,11.44775,44.55225,11,44,11z">
        </path>
    </g>
</svg>